<?xml version="1.0" encoding="UTF-8"?>
<svg id="Calque_7" data-name="Calque 7" xmlns="http://www.w3.org/2000/svg" xmlns:xlink="http://www.w3.org/1999/xlink" viewBox="0 0 367 249">
  <defs>
    <style>
      .cls-1 {
        fill: #fff;
      }

      .cls-2 {
        fill: url(#Dégradé_sans_nom_7);
      }
    </style>
    <linearGradient id="Dégradé_sans_nom_7" data-name="Dégradé sans nom 7" x1="183.5" y1="249.06" x2="183.5" y2="0" gradientUnits="userSpaceOnUse">
      <stop offset="0" stop-color="#662482"/>
      <stop offset=".22" stop-color="#6f3189" stop-opacity=".94"/>
      <stop offset=".5" stop-color="#8b59a0" stop-opacity=".76"/>
      <stop offset=".8" stop-color="#b99ac5" stop-opacity=".47"/>
      <stop offset=".89" stop-color="#cab3d3" stop-opacity=".36"/>
      <stop offset=".95" stop-color="#e7dceb" stop-opacity=".16"/>
      <stop offset="1" stop-color="#fff" stop-opacity="0"/>
    </linearGradient>
  </defs>
  <image width="2835" height="1890" transform="translate(0 .03) scale(.13)" xlink:href="../../../../../Downloads/AdobeStock_128268891.jpeg"/>
  <rect class="cls-2" y="0" width="367" height="249.07"/>
  <path class="cls-1" d="m123.6,181.99c1.34-.85,2.63-1.64,3.9-2.41,6.17-3.76,11.92-7.27,16.07-13.93.3-.48.59-.96.87-1.43,1.13-1.87,2.22-3.68,3.6-5.05.26-.26.45-.49.65-.73.27-.33.55-.65.98-1.07,6.41-6.94,12.24-12.5,18.6-18.56,1.75-1.67,3.54-3.37,5.35-5.11.88-.85,1.69-1.03,2.34-1.17.3-.07.5-.11.47-.91-.02-.66.91-2.1,1.52-3.06l.35-.55c.03-.05.17-.3.4-.68,1-1.68,2.55-4.29,5.16-6.91l38.03-38.15c1.5-1.51,2.84-2.8,3.93-3.84.46-.45.88-.85,1.24-1.2,1.08-1.06,2.59-2.28,4.24-3.62,4.12-3.34,9.13-7.4,9.5-10.38l.04-.35.26-.25c.91-.87,2.44-1.47,4.1-2.12,1.76-.69,3.68-1.44,4.85-2.51,1.58-1.45,1.74-3.78-2.26-8.15-4.37-3.99-6.7-3.84-8.15-2.26-1.07,1.17-1.82,3.09-2.51,4.85-.65,1.67-1.25,3.2-2.11,4.1l-.25.26-.35.04c-2.98.37-7.05,5.38-10.38,9.5-1.34,1.65-2.56,3.16-3.62,4.24l-43.49,42.91c-1.3,1.28-2.53,2.36-3.64,3.25-1.46,1.18-2.73,2.04-3.64,2.6l-.55.35c-.96.62-2.4,1.55-3.06,1.52-.81-.03-.85.17-.91.47-.14.65-.32,1.46-1.17,2.34-1.74,1.81-3.45,3.6-5.11,5.35-6.06,6.35-11.62,12.19-18.56,18.6-.41.43-.74.71-1.07.98-.24.2-.47.39-.73.65-1.37,1.38-3.17,2.47-5.05,3.6-.47.28-.95.57-1.43.87-6.66,4.15-10.17,9.9-13.93,16.07-.78,1.27-1.56,2.56-2.41,3.9h0c-.14.22.26-.2.37-.03.64,1,2.03,2.57,3.52,4.06,1.49,1.49,3.07,2.89,4.06,3.52.17.11-.26.51-.04.37h0,0Zm4.95-.7c-1.29.78-2.6,1.58-3.87,2.39h0c-.55.35-1.29.18-2.14-.37-1.12-.71-2.81-2.21-4.39-3.79-1.58-1.58-3.08-3.28-3.79-4.39-.55-.85-.72-1.59-.37-2.14h0c.81-1.27,1.61-2.57,2.39-3.86,3.89-6.38,7.52-12.33,14.57-16.72.48-.3.97-.6,1.46-.89,1.77-1.07,3.48-2.1,4.66-3.3.32-.32.59-.55.86-.77.28-.24.57-.48.92-.85l.05-.05c6.92-6.38,12.46-12.2,18.49-18.53,1.65-1.72,3.33-3.49,5.12-5.35.45-.46.56-.97.65-1.38.28-1.28.47-2.14,2.94-2.05.03,0,1.15-.73,1.9-1.21.17-.11.32-.2.59-.37.85-.52,2.03-1.33,3.43-2.46,1.08-.87,2.27-1.9,3.49-3.12l43.47-42.88c.97-1,2.18-2.49,3.49-4.11,3.44-4.24,7.6-9.38,11.29-10.16.51-.69.99-1.9,1.5-3.22.76-1.92,1.58-4.03,2.9-5.47,2.21-2.41,5.46-2.92,11.01,2.16l.06.06c5.09,5.55,4.58,8.8,2.16,11.01-1.44,1.32-3.55,2.15-5.47,2.9-1.31.51-2.53.99-3.22,1.5-.78,3.68-5.92,7.85-10.16,11.29-1.62,1.32-3.11,2.52-4.11,3.5-.37.36-.79.76-1.25,1.2-1.09,1.05-2.42,2.33-3.9,3.82l-38.03,38.15c-2.42,2.42-3.9,4.91-4.85,6.52-.07.12-.14.23-.42.7-.16.27-.26.42-.37.59-.48.75-1.21,1.87-1.21,1.9.09,2.48-.77,2.66-2.05,2.94-.41.09-.91.2-1.38.65-1.87,1.79-3.63,3.48-5.35,5.12-6.33,6.03-12.15,11.58-18.53,18.49l-.05.05c-.37.35-.61.63-.85.92-.23.27-.45.54-.77.86-1.2,1.18-2.23,2.89-3.3,4.66-.29.49-.59.98-.89,1.46-4.39,7.06-10.34,10.68-16.72,14.57h0Zm8.52-31.84l11.09,11.26-1.42,1.41-11.09-11.26,1.42-1.41Zm26.78-26.57l11.09,11.26-1.42,1.41-11.09-11.26,1.42-1.41Zm4.2-4.21l11.09,11.26-1.42,1.41-11.09-11.26,1.42-1.41h0Zm-10.35,10.35l11.09,11.26-1.42,1.41-11.09-11.26,1.42-1.41h0Zm-.53,11.48c.95.94,1.42,2.19,1.42,3.43s-.47,2.49-1.42,3.43l-9.98,9.98-6.86-6.86,9.98-9.98c.94-.94,2.19-1.42,3.43-1.42s2.49.47,3.43,1.42h0Zm-.59,3.43c0-.73-.28-1.46-.83-2.01-.55-.55-1.28-.83-2.01-.83s-1.46.28-2.01.83l-8.56,8.56,4.01,4.01,8.56-8.56c.55-.55.83-1.28.83-2.01h0Zm-11,2.78l5.61,5.63-1.42,1.42-5.61-5.63,1.42-1.42Zm75.85-78.85l8.37,8.54-1.43,1.4-8.37-8.54,1.43-1.4Zm13.42-13.42l8.37,8.54-1.42,1.4-8.37-8.54,1.43-1.4h0Zm-.49,8.9c.69.69,1.03,1.59,1.03,2.5s-.34,1.81-1.03,2.5c-.69.69-1.59,1.03-2.49,1.03s-1.81-.35-2.5-1.03c-.69-.69-1.03-1.6-1.03-2.5s.34-1.81,1.03-2.5c.69-.69,1.59-1.03,2.5-1.03s1.81.35,2.49,1.03Zm-.98,2.5c0-.39-.15-.78-.45-1.07-.3-.3-.68-.45-1.07-.45s-.78.15-1.07.45c-.3.3-.45.69-.45,1.07s.15.78.45,1.07c.3.3.68.44,1.07.44s.78-.15,1.07-.44c.3-.3.45-.69.45-1.07Zm-11.64,10.12c.69.69,1.03,1.59,1.03,2.49s-.35,1.81-1.03,2.5c-.69.69-1.59,1.03-2.5,1.03s-1.81-.34-2.5-1.03c-.69-.69-1.03-1.59-1.03-2.5s.34-1.81,1.03-2.49c.69-.69,1.6-1.03,2.5-1.03s1.81.34,2.5,1.03Zm-.98,2.49c0-.39-.15-.78-.45-1.07-.3-.3-.68-.44-1.07-.44s-.78.15-1.07.44c-.3.3-.44.69-.44,1.07s.15.78.44,1.07c.3.3.69.45,1.07.45s.78-.15,1.07-.45c.3-.3.45-.68.45-1.07Zm-5.87,4.35c.69.69,1.03,1.59,1.03,2.5s-.34,1.81-1.03,2.49c-.69.69-1.59,1.03-2.49,1.03s-1.81-.34-2.5-1.03c-.69-.69-1.03-1.59-1.03-2.49s.34-1.81,1.03-2.5,1.59-1.03,2.5-1.03,1.81.34,2.49,1.03Zm-.98,2.5c0-.39-.15-.78-.44-1.07-.3-.3-.69-.45-1.07-.45s-.78.15-1.07.45c-.3.3-.45.68-.45,1.07s.15.78.45,1.07c.3.3.68.44,1.07.44s.78-.15,1.07-.44c.3-.3.44-.69.44-1.07Zm-8.77,7.25c.69.69,1.03,1.59,1.03,2.5s-.34,1.81-1.03,2.5c-.69.69-1.59,1.03-2.5,1.03s-1.81-.35-2.49-1.03c-.69-.69-1.03-1.59-1.03-2.5s.34-1.81,1.03-2.5c.69-.69,1.59-1.03,2.49-1.03s1.81.35,2.5,1.03Zm-.98,2.5c0-.39-.15-.78-.45-1.07-.3-.3-.68-.44-1.07-.44s-.78.15-1.07.44c-.3.3-.45.69-.45,1.07s.15.78.45,1.07c.3.3.68.44,1.07.44s.78-.15,1.07-.44c.3-.3.45-.69.45-1.07Zm-7.42,5.9c.69.69,1.03,1.59,1.03,2.5s-.34,1.81-1.03,2.49c-.69.69-1.6,1.03-2.5,1.03s-1.81-.34-2.5-1.03-1.03-1.59-1.03-2.49.35-1.81,1.03-2.5c.69-.69,1.59-1.03,2.5-1.03s1.81.34,2.5,1.03Zm-.98,2.5c0-.39-.15-.78-.44-1.07-.3-.3-.69-.45-1.07-.45s-.78.15-1.07.45c-.3.3-.45.68-.45,1.07s.15.78.45,1.07c.3.3.68.44,1.07.44s.78-.15,1.07-.44c.3-.3.44-.69.44-1.07Zm-7.42,5.9c.69.69,1.03,1.59,1.03,2.49s-.34,1.81-1.03,2.5-1.59,1.03-2.5,1.03-1.81-.34-2.49-1.03c-.69-.69-1.03-1.59-1.03-2.5s.34-1.81,1.03-2.49c.69-.69,1.59-1.03,2.49-1.03s1.81.34,2.5,1.03Zm-.98,2.49c0-.39-.15-.78-.45-1.07-.3-.3-.68-.44-1.07-.44s-.78.15-1.07.44c-.3.3-.44.69-.44,1.07s.15.78.44,1.07c.3.3.69.45,1.07.45s.78-.15,1.07-.45c.3-.3.45-.68.45-1.07Z"/>
  <g>
    <path class="cls-1" d="m134.76,209.45h4.46l6.95,19.15,7.16-19.15h4.46l-9.32,24.44h-4.39l-9.32-24.44Z"/>
    <path class="cls-1" d="m180.22,230.22v3.67h-18.07v-24.44h17.85v3.67h-13.93v5.9h11.09v3.67h-11.09v7.52h14.15Z"/>
    <path class="cls-1" d="m185.26,209.45h4.5l12.89,18.5v-18.5h3.89v24.44h-4.36l-13.03-18.83v18.83h-3.89v-24.44Z"/>
    <path class="cls-1" d="m219.79,213.12h-8.57v-3.67h21.02v3.67h-8.57v20.77h-3.89v-20.77Z"/>
  </g>
</svg>