<svg width="24" height="15" viewBox="0 0 24 15" fill="none" xmlns="http://www.w3.org/2000/svg">
<path d="M0.958848 7.13081C0.958848 6.51837 1.18846 5.94436 1.62871 5.50411L6.12587 1.00694C6.66169 0.509304 7.35062 0.241395 8.07786 0.241368L19.981 0.241367C21.799 0.26047 23.2725 1.65743 23.2725 3.41813L23.2725 10.8815C23.2725 11.7235 22.9089 12.5082 22.354 13.0631C21.7608 13.6563 20.9188 14.0391 20.0002 14.039L8.09709 14.039C7.36982 14.039 6.68089 13.7711 6.12603 13.2544L1.62873 8.75734C1.18862 8.31723 0.958851 7.74325 0.958848 7.13081ZM8.21178 9.98213C8.99643 10.0014 9.70443 9.67591 10.2212 9.15918C10.7379 8.64245 11.0631 7.93443 11.0441 7.14981C11.0633 5.59976 9.78104 4.31745 8.21189 4.31759C6.66184 4.29835 5.37953 5.58065 5.37967 7.14981C5.36029 8.69999 6.64249 9.98213 8.21178 9.98213Z" fill="#4F388E"/>
</svg>
