<svg width="13" height="27" viewBox="0 0 13 27" fill="none" xmlns="http://www.w3.org/2000/svg">
<path d="M8.22 20.5502C8.22 19.3848 7.27532 18.4402 6.11 18.4402C4.94468 18.4402 4 19.3848 4 20.5502C4 21.7155 4.94468 22.6602 6.11 22.6602C7.27532 22.6602 8.22 21.7155 8.22 20.5502Z" fill="#141414"/>
<path d="M8.22 13.3295C8.22 12.1641 7.27532 11.2195 6.11 11.2195C4.94468 11.2195 4 12.1641 4 13.3295C4 14.4948 4.94468 15.4395 6.11 15.4395C7.27532 15.4395 8.22 14.4948 8.22 13.3295Z" fill="#141414"/>
<path d="M8.22 6.1107C8.22 4.94538 7.27532 4.0007 6.11 4.0007C4.94468 4.0007 4 4.94538 4 6.1107C4 7.27602 4.94468 8.2207 6.11 8.2207C7.27532 8.2207 8.22 7.27602 8.22 6.1107Z" fill="#141414"/>
</svg>
