<svg width="12" height="10" viewBox="0 0 12 10" fill="none" xmlns="http://www.w3.org/2000/svg">
<path d="M7.75894 2.00148H3.65062V0.256334C3.65062 0.0382363 3.40826 -0.0708991 3.2386 0.0503227L0.342172 2.3408C0.208859 2.43776 0.208859 2.64377 0.342172 2.74073L3.2386 5.0312C3.40826 5.16452 3.65062 5.04329 3.65062 4.82519V3.08005H7.75894C9.37076 3.08005 10.6917 4.38889 10.6917 6.00071C10.6917 7.61246 9.37078 8.93349 7.75894 8.93349H2.57203C2.26906 8.93349 2.03878 9.17585 2.03878 9.46674C2.03878 9.76972 2.28114 10 2.57203 10H7.75894C9.96458 10 11.7582 8.20642 11.7582 6.00075C11.7582 3.79508 9.96461 2.0015 7.75894 2.0015V2.00148Z" fill="#FF0000"/>
</svg>
